<svg id="Outlines" height="512" viewBox="0 0 60 60" width="512" xmlns="http://www.w3.org/2000/svg"><path d="m59 19.94c0 6.6-4.25 13.35-9.5 13.35a4.552 4.552 0 0 1 -1.5-.26v-4.72a2.5 2.5 0 0 0 1.5.98c1.68 0 5.5-3.47 5.5-9.35 0-4.3-2.52-7.94-5.5-7.94-1.72 0-3.28 1.21-4.29 3.08a16.362 16.362 0 0 0 -2.79-3.09 8.7 8.7 0 0 1 7.08-3.99c5.25 0 9.5 5.35 9.5 11.94z" fill="#c6d8fb"/><path d="m48.226 28.534c-.075-.074-.149-.14-.226-.224v.39c.075-.052.15-.109.226-.166z" fill="#cad9fc"/><path d="m49.5 8a7.757 7.757 0 0 0 -1.5.163c4.534.907 8 5.83 8 11.777 0 5.907-3.408 11.919-7.887 13.119a4.517 4.517 0 0 0 1.387.231c5.25 0 9.5-6.75 9.5-13.35s-4.25-11.94-9.5-11.94z" fill="#a4c3fd"/><path d="m55 19.94c0 5.88-3.82 9.35-5.5 9.35a2.5 2.5 0 0 1 -1.5-.98v-4.32a15.641 15.641 0 0 0 -2.79-8.91c1.01-1.87 2.57-3.08 4.29-3.08 2.98 0 5.5 3.64 5.5 7.94z" fill="#e8edfc"/><path d="m49.5 12a3.8 3.8 0 0 0 -1.492.324c2.274.976 3.992 4.068 3.992 7.616a10.788 10.788 0 0 1 -3.774 8.594 2.159 2.159 0 0 0 1.274.756c1.68 0 5.5-3.47 5.5-9.35 0-4.3-2.52-7.94-5.5-7.94z" fill="#cad9fc"/><path d="m17.58 11.99a16.362 16.362 0 0 0 -2.79 3.09c-1.01-1.87-2.57-3.08-4.29-3.08-2.98 0-5.5 3.64-5.5 7.94 0 5.88 3.82 9.35 5.5 9.35a2.5 2.5 0 0 0 1.5-.98v4.72a4.552 4.552 0 0 1 -1.5.26c-5.25 0-9.5-6.75-9.5-13.35s4.25-11.94 9.5-11.94a8.7 8.7 0 0 1 7.08 3.99z" fill="#c6d8fb"/><path d="m14.79 15.08a15.641 15.641 0 0 0 -2.79 8.91v4.32a2.5 2.5 0 0 1 -1.5.98c-1.68 0-5.5-3.47-5.5-9.35 0-4.3 2.52-7.94 5.5-7.94 1.72 0 3.28 1.21 4.29 3.08z" fill="#e8edfc"/><path d="m48 23.99v9.74c0 5.88-3.54 14.75-9 17.52v-16.51a4.971 4.971 0 0 1 2.07-4.04 7 7 0 1 0 -9.55-10.06 1.964 1.964 0 0 1 -3.04 0 7 7 0 1 0 -9.55 10.06 4.971 4.971 0 0 1 2.07 4.04v16.51c-5.46-2.77-9-11.64-9-17.52v-9.74a15.641 15.641 0 0 1 2.79-8.91 16.362 16.362 0 0 1 2.79-3.09 16.7 16.7 0 0 1 10.88-3.99h3.08a16.7 16.7 0 0 1 10.88 3.99 16.362 16.362 0 0 1 2.79 3.09 15.641 15.641 0 0 1 2.79 8.91z" fill="#e8edfc"/><path d="m45.21 15.08a16.362 16.362 0 0 0 -2.79-3.09 16.7 16.7 0 0 0 -10.88-3.99h-3a16.7 16.7 0 0 1 10.88 3.99 16.362 16.362 0 0 1 2.79 3.09 15.641 15.641 0 0 1 2.79 8.91v9.74c0 4.716-2.281 11.349-6 15.222v2.3c5.46-2.77 9-11.64 9-17.52v-9.742a15.641 15.641 0 0 0 -2.79-8.91z" fill="#cad9fc"/><path d="m43.97 24.3a7.008 7.008 0 0 0 -12.45-3.66 1.964 1.964 0 0 1 -3.04 0 7 7 0 1 0 -9.55 10.06 4.971 4.971 0 0 1 2.07 4.04v16.51c.28.14.56.26.84.37l1.51.44a24.054 24.054 0 0 0 13.3 0l1.51-.44c.28-.11.56-.23.84-.37v-16.51a4.971 4.971 0 0 1 2.07-4.04 7.01 7.01 0 0 0 2.9-6.4zm-20.97 2.7a2 2 0 1 1 2-2 2.006 2.006 0 0 1 -2 2zm7 14a4.2 4.2 0 0 1 -4-3.72c0-1.6 1.79-1.25 4-1.25s4-.35 4 1.25a4.2 4.2 0 0 1 -4 3.72zm7-14a2 2 0 1 1 2-2 2.006 2.006 0 0 1 -2 2z" fill="#e8edfc"/><circle cx="23" cy="25" fill="#a4c2f7" r="2"/><path d="m34 37.28a4.2 4.2 0 0 1 -4 3.72 4.2 4.2 0 0 1 -4-3.72c0-1.6 1.79-1.25 4-1.25s4-.35 4 1.25z" fill="#a4c2f7"/><circle cx="37" cy="25" fill="#a4c2f7" r="2"/><path d="m11.87 33.07a4.271 4.271 0 0 1 -1.37.22c-5.25 0-9.5-6.75-9.5-13.35s4.25-11.94 9.5-11.94a7.482 7.482 0 0 1 1.5.15c-4.54.9-8 5.84-8 11.79 0 5.9 3.4 11.92 7.87 13.13z" fill="#fff"/><path d="m14.79 15.08a15.641 15.641 0 0 0 -2.79 8.91v4.32a2.5 2.5 0 0 1 -1.5.98c-1.68 0-5.5-3.47-5.5-9.35 0-4.3 2.52-7.94 5.5-7.94 1.72 0 3.28 1.21 4.29 3.08z" fill="#e8edfc"/><path d="m15 33.73c0 4.72 2.28 11.36 6 15.23v2.29c-5.46-2.77-9-11.64-9-17.52v-9.74a15.641 15.641 0 0 1 2.79-8.91 16.362 16.362 0 0 1 2.79-3.09 16.7 16.7 0 0 1 10.88-3.99h3a16.7 16.7 0 0 0 -10.88 3.99 16.362 16.362 0 0 0 -2.79 3.09 15.641 15.641 0 0 0 -2.79 8.91z" fill="#fff"/><path d="m14.493 41.186-1.874.7a24.815 24.815 0 0 1 -1.619-8.159h2a22.914 22.914 0 0 0 1.493 7.459z" fill="#fff"/><g fill="#428dff"><path d="m12.468 38.7a1 1 0 0 1 -.01-2h.01a1 1 0 1 1 0 2z"/><path d="m25 37.28a5.2 5.2 0 0 0 5 4.72 5.2 5.2 0 0 0 5-4.72 2.111 2.111 0 0 0 -.607-1.578c-.778-.757-1.992-.724-3.4-.689-.633.016-1.351.016-1.984 0-1.408-.035-2.623-.068-3.4.689a2.111 2.111 0 0 0 -.609 1.578zm2.008-.149a5.927 5.927 0 0 1 1.947-.119c.668.018 1.422.018 2.09 0a6.414 6.414 0 0 1 1.935.1.476.476 0 0 1 .02.168 3.2 3.2 0 0 1 -3 2.72 3.2 3.2 0 0 1 -3-2.72c0-.095.012-.143.008-.149z"/><path d="m26 25a3 3 0 1 0 -3 3 3 3 0 0 0 3-3zm-3 1a1 1 0 1 1 1-1 1 1 0 0 1 -1 1z"/><path d="m40 25a3 3 0 1 0 -3 3 3 3 0 0 0 3-3zm-3 1a1 1 0 1 1 1-1 1 1 0 0 1 -1 1z"/><path d="m10.5 34.29a5.394 5.394 0 0 0 .657-.057.985.985 0 0 0 .843.494 1 1 0 0 0 1-1v-9.734a15.248 15.248 0 0 1 15.457-14.993h3.086a15.248 15.248 0 0 1 15.457 14.993v9.734c0 5.343-2.95 12.53-7 15.7v-14.688a3.977 3.977 0 0 1 1.653-3.23 8 8 0 1 0 -10.912-11.5.992.992 0 0 1 -1.482 0 8 8 0 1 0 -10.912 11.5 3.977 3.977 0 0 1 1.653 3.23v14.666a12.634 12.634 0 0 1 -2.488-2.576 23.255 23.255 0 0 1 -3.019-5.643 1 1 0 1 0 -1.874.7 25.213 25.213 0 0 0 3.294 6.146 13.662 13.662 0 0 0 4.587 4.068 1.092 1.092 0 0 0 .15.082c.271.136.547.264.832.38v-.013a.7.7 0 0 0 .072.038l1.508.436a25.007 25.007 0 0 0 13.864 0l1.585-.461c.282-.107.551-.246.823-.379a.892.892 0 0 0 .109-.05c5.98-3.007 9.344-12.062 9.532-17.886.173.017.346.045.519.045 6.188 0 10.5-7.562 10.5-14.35.006-7.137-4.704-12.942-10.494-12.942a9.517 9.517 0 0 0 -7.256 3.6 17.652 17.652 0 0 0 -10.701-3.6h-3.086a17.652 17.652 0 0 0 -10.7 3.6 9.517 9.517 0 0 0 -7.257-3.6c-5.79 0-10.5 5.805-10.5 12.94 0 6.788 4.313 14.35 10.5 14.35zm25.877 16.81a22.987 22.987 0 0 1 -12.754 0l-1.455-.42c-.057-.024-.112-.053-.168-.078v-15.863a5.983 5.983 0 0 0 -2.489-4.857 5.968 5.968 0 0 1 -2.483-5.482 6.07 6.07 0 0 1 5.272-5.36 6 6 0 0 1 5.4 2.22 2.964 2.964 0 0 0 4.612 0 6 6 0 1 1 8.183 8.622 5.983 5.983 0 0 0 -2.495 4.857v15.871c-.039.015-.076.038-.114.053zm10-36.021a3.954 3.954 0 0 1 3.123-2.079c2.4 0 4.5 3.243 4.5 6.94 0 5.3-3.415 8.35-4.453 8.354a1.792 1.792 0 0 1 -.547-.394v-3.9a16.541 16.541 0 0 0 -2.623-8.922zm3.123-6.079c4.687 0 8.5 4.908 8.5 10.94 0 6.348-4.131 12.35-8.5 12.35a3.389 3.389 0 0 1 -.5-.044v-2.032a1.828 1.828 0 0 0 .5.076c2.292 0 6.5-3.93 6.5-10.35 0-4.93-2.916-8.94-6.5-8.94a5.564 5.564 0 0 0 -4.353 2.37 17.267 17.267 0 0 0 -1.377-1.486 7.432 7.432 0 0 1 5.73-2.884zm-38.5 14.993v3.9a2.978 2.978 0 0 1 -.5.394c-1.093-.004-4.5-3.057-4.5-8.347 0-3.697 2.1-6.94 4.5-6.94a3.954 3.954 0 0 1 3.123 2.078 16.541 16.541 0 0 0 -2.623 8.915zm-.5-14.993a7.432 7.432 0 0 1 5.73 2.884 17.267 17.267 0 0 0 -1.377 1.486 5.564 5.564 0 0 0 -4.353-2.37c-3.584 0-6.5 4.01-6.5 8.94 0 6.42 4.208 10.35 6.5 10.35a1.828 1.828 0 0 0 .5-.076v2.032a3.389 3.389 0 0 1 -.5.044c-4.369 0-8.5-6-8.5-12.35 0-6.032 3.813-10.94 8.5-10.94z"/><path d="m35.455 43.131a1.014 1.014 0 0 0 -1.348.4c-.034.059-.877 1.469-4.107 1.469s-4.078-1.41-4.1-1.447a1 1 0 1 0 -1.79.894c.126.261 1.4 2.553 5.89 2.553s5.759-2.292 5.89-2.553a.987.987 0 0 0 -.435-1.316z"/></g></svg>