<?xml version="1.0" encoding="UTF-8"?>
<!-- Generator: Adobe Illustrator 25.2.1, SVG Export Plug-In . SVG Version: 6.00 Build 0)  -->
<svg xmlns="http://www.w3.org/2000/svg" xmlns:xlink="http://www.w3.org/1999/xlink" version="1.1" id="Capa_1" x="0px" y="0px" viewBox="0 0 512 512" style="enable-background:new 0 0 512 512;" xml:space="preserve" width="512" height="512">
<g>
	<path style="fill-rule:evenodd;clip-rule:evenodd;fill:#73871E;" d="M47.88,327.114c1.774,31.2,2.045,61.274,0.639,90.103   c-5.605-28.864-9.756-59.68-16.138-87.502c-2.865,0.514-5.276,1.372-7.795,2.147c6.755,29.062,9.457,60.484,12.837,90.349   c-8.917-22.18-16.63-45.977-26.337-67.099c-2.509,1.37-5.373,2.482-7.881,3.852c8.766,26.206,17.813,52.035,26.602,78.209   c-7.531-10.598-15.576-20.497-22.829-31.466c-2.289,0.688-4.833,3.646-6.98,5.409c7.831,16.228,20.012,34.513,29.642,50.403   c3.46,5.711,6.91,12.712,11.204,16.604c4.902,4.448,19.808,11.849,28.28,3.99c3.825-3.546,3.796-10.121,4.301-16.843   c2.271-30.088,3.853-61.531,2.52-93.941c-1.784-1.824-5.331-1.286-7.479-2.628c-1.505,20.5-3.277,40.799-7.579,59.211   c-3.921-34.467-0.297-65.868-4.688-101.673C53.152,326.9,50.954,326.418,47.88,327.114z"/>
	<path style="fill-rule:evenodd;clip-rule:evenodd;fill:#CBCF2E;" d="M360.683,422.138c3.094-16.182,8.41-36.416,12.035-54.485   c-2.596-0.633-4.691-1.773-7.688-2.006c-4.294,19.106-8.193,38.604-11.701,58.497c-0.035-22.433,1.614-46.077,1.336-69.863   c-2.398-0.049-5.1,0.2-7.019-0.333c-2.147,25.153-2.487,52.109-5.349,76.549c-0.851-24.441-4.623-45.964-8.355-67.522   c-2.489-0.263-3.986,0.468-6.352,0.333c1.689,32.741,0.032,73.101,3.676,106.299c1.096,9.97,4.255,23.767,13.036,24.067   c7.054,0.238,15.712-7.669,19.054-12.035c4.825-6.296,7.153-14.144,10.028-20.722c6.757-15.457,14.635-27.413,21.058-40.785   c-1.524-2.596-3.982-4.263-6.349-6.015c-7.751,10.186-15.087,20.792-22.396,31.422c9.672-26.206,19.315-52.442,27.742-79.893   c-3.206-0.022-4.584-1.878-7.352-2.339C377.597,382.89,367.791,401.165,360.683,422.138z"/>
	<g>
		<path style="fill-rule:evenodd;clip-rule:evenodd;fill:#73871E;" d="M268.062,451.416c-8.09-1.984-7.516,24.002-1.337,24.07    C271.664,475.54,274.21,452.924,268.062,451.416z"/>
		<path style="fill-rule:evenodd;clip-rule:evenodd;fill:#73871E;" d="M249.008,472.479c-5.345-0.999-4.683,15.925-0.336,16.044    C252.693,488.631,253.575,473.329,249.008,472.479z"/>
		<path style="fill-rule:evenodd;clip-rule:evenodd;fill:#73871E;" d="M270.737,483.84c-3.048,1.243-4.492,15.595,1.003,15.045    c4.021-0.403,2.877-9.661,3.006-13.705C273.853,484.295,272.89,483.472,270.737,483.84z"/>
	</g>
	<g>
		<path style="fill-rule:evenodd;clip-rule:evenodd;fill:#73871E;" d="M189.491,423.884c7.141-1.486,4.718,21.515-1.67,19.387    c-2.164-0.723-2.439-10.259-2.008-13.372C186.203,427.095,187.236,424.352,189.491,423.884z"/>
		<path style="fill-rule:evenodd;clip-rule:evenodd;fill:#73871E;" d="M210.885,438.258c2.15,3.2,0.345,14.203-4.013,13.367    C203.188,450.923,204.46,433.459,210.885,438.258z"/>
	</g>
	<g>
		<path style="fill-rule:evenodd;clip-rule:evenodd;fill:#73871E;" d="M416.952,447.973c-6.23-2.431-4.974,16.645,1,15.375    C422.147,462.46,419.74,449.061,416.952,447.973z"/>
		<path style="fill-rule:evenodd;clip-rule:evenodd;fill:#73871E;" d="M406.253,465.687c-6.651-2.276-6.595,13.622-1.001,13.372    C409.375,478.881,410.304,467.073,406.253,465.687z"/>
		<path style="fill-rule:evenodd;clip-rule:evenodd;fill:#73871E;" d="M445.083,494.717c4.893-0.818,3.698-11.762,0-11.697    C440.731,483.09,443.135,493.003,445.083,494.717z"/>
	</g>
	<g>
		<g>
			<path style="fill-rule:evenodd;clip-rule:evenodd;fill:#996D1D;" d="M275.837,268.113c11.714,13.437,25.812,26.958,40.814,41.199     c17.152,16.285,31.894,31.823,66.078,29.931c14.427-0.801,26.695-4.932,38.482-8.941c11.721-3.985,23.236-7.953,34.982-12.438     c-2.107-7.349-0.953-24.303-2.555-32.159c-19.341,3.308-52.107,12.834-72.124,11.491c-21.993-1.475-28.321-11.589-41.154-24.419     c-13.763-13.765-25.932-29.351-37.312-40.036C294.32,244.874,285.449,256.863,275.837,268.113z"/>
			<g>
				<path style="fill-rule:evenodd;clip-rule:evenodd;fill:#D3A94A;" d="M331.81,308.926c-1.903-6.294-9.75-13.651-15.547-15.936      c-1.164-0.46-2.878,0.912-3.11,1.554c-0.716,1.976,3.905,7.612,5.055,8.938C319.944,305.496,329.005,314.367,331.81,308.926z"/>
				<path style="fill-rule:evenodd;clip-rule:evenodd;fill:#FFFFFF;" d="M336.869,302.234c-2.949,3.01,4.951,9.285,7.508,5.777      C346.876,304.578,339.707,299.335,336.869,302.234z"/>
				<path style="fill-rule:evenodd;clip-rule:evenodd;fill:#FFFFFF;" d="M346.58,322.915c0.176-0.417,0.007-6.426-5.831-8.159      C331.95,312.144,343.969,329.195,346.58,322.915z"/>
			</g>
		</g>
		<g>
			<g>
				<path style="fill-rule:evenodd;clip-rule:evenodd;fill:#FCD400;" d="M418.371,224.534c-7.505-5.349-15.679-8.952-24.242-11.169      c-1.412-0.363-2.846-0.639-4.277-0.966c-1.276-0.287-2.941-0.406-3.885-1.513c-0.002-1.151,1.14-1.998,1.881-2.878      c0.742-0.893,1.473-1.776,2.359-2.631c1.695-1.627,4.171-3.977,6.757-4.629c1.706-0.428,5.809,2.063,7.36,2.905      c6.905,3.746,14.177,9.396,19.892,14.858c5.308-1.218,10.108-1.399,14.759-0.522c4.602,0.858,9.121,2.233,13.081,4.983      c4.008,2.769,8.182,5.514,11.904,8.857c3.874,3.476,7.459,7.504,10.844,11.992c7.06,9.363,12.269,21.764,14.615,32.199      c2.292,10.216,2.087,20.356,0.973,29.387c-1.188,9.642-3.575,18.464-6.905,27.099c-3.262,8.464-7.711,17.195-13.505,24.977      c-5.579,7.496-13.482,15.689-23.299,21.999c-11.852,7.62-24.243,10.828-33.673,7.365c-0.754-0.276-1.512-0.807-2.387-0.953      c-1.911-0.317-5.698,0.885-7.496-0.271c-1.061-0.682-3.6-4.112-3.324-5.917c0.251-1.684,3.037-2.718,4.476-4.096      c0.792-0.753,1.57-3.208,2.185-4.239c2.406-4.044,6.314-7.726,10.285-11.469c5.365-5.062,10.331-10.035,14.306-15.153      c8.305-10.684,12.954-22.178,14.608-34.448c0.858-6.342,0.928-13.126-0.383-19.625c-1.392-6.889-4.15-14.035-7.933-21.918      C430.197,253.864,417.88,238.318,418.371,224.534z"/>
				<g style="opacity:0.1;">
					<path style="fill:#3A3670;" d="M418.368,224.572c-0.463,13.77,11.836,29.311,18.98,44.185       c3.783,7.883,6.541,15.029,7.933,21.918c1.311,6.499,1.241,13.283,0.383,19.625c-1.654,12.27-6.303,23.764-14.608,34.448       c-3.975,5.119-8.941,10.092-14.306,15.153c-3.971,3.744-7.878,7.425-10.285,11.469c-0.615,1.031-1.393,3.487-2.185,4.239       c-0.44,0.42-1.013,0.809-1.588,1.197c0.098,1.224,0.254,2.496-0.04,3.435c-0.014,0.035,0.07,0.098,0.07,0.127       c0.147-0.097,0.391-0.176,0.327-0.341c4.404-6.177,11.059-10.638,16.714-15.757c5.839-5.271,11.277-10.73,15.834-16.133       c6.969-8.259,11.169-17.66,14.06-27.151c2.937-9.664,4.335-19.512,3.109-30.375c-0.832-7.377-3.422-15.132-7.222-23.153       c-3.852-8.126-8.852-15.18-14.006-22.091c-3.914-5.249-7.455-11.269-9.971-17.411c-0.598-1.456-1.012-3.351-2.281-4.48       C418.996,223.855,418.691,224.22,418.368,224.572z"/>
					<path style="fill:#3A3670;" d="M423.849,218.955c1.263,0.501,2.906,0.555,4.109,0.807c11.334,2.355,20.065,7.95,28.865,17.584       c11.26,12.33,17.712,29.587,20.528,44.253c5.538,28.807,1.288,55.647-15.424,77.451c-5.155,6.716-12.088,14.458-23.347,20.31       c-8.811,4.583-18.288,7.081-25.873,6.283c-0.306-0.033-2.144-0.45-2.642,0.206c0.199,0.008,0.388,0.022,0.558,0.046       c0.876,0.146,1.633,0.677,2.387,0.953c9.429,3.462,21.821,0.255,33.673-7.365c9.817-6.31,17.72-14.504,23.299-21.999       c5.794-7.782,10.243-16.513,13.505-24.977c3.331-8.635,5.717-17.457,6.905-27.099c1.114-9.03,1.318-19.171-0.973-29.387       c-2.346-10.435-7.555-22.836-14.615-32.199c-3.385-4.488-6.97-8.516-10.844-11.992c-3.722-3.343-7.896-6.088-11.904-8.857       c-3.96-2.75-8.479-4.125-13.081-4.983c-4.517-0.85-9.181-0.699-14.303,0.422C424.397,218.601,424.126,218.777,423.849,218.955z       "/>
				</g>
			</g>
			<g>
				<path style="fill-rule:evenodd;clip-rule:evenodd;fill:#996D1D;" d="M398.718,379.496c2.611-1.738,4.469-3.695,6.595-5.574      c1.762,4.94,5.142,9.967,8.171,13.069c-3.484,0.227-6.805-0.1-10.129-0.412C401.744,384.436,400.166,382.176,398.718,379.496z"/>
				<path style="fill-rule:evenodd;clip-rule:evenodd;fill:#996D1D;" d="M386.793,211.471c-2.186-0.877-0.827-3.297,0.347-4.797      c1.73-2.22,3.633-3.714,6.733-5.644c1.425-0.888,3.088-1.808,3.819-0.845c1.128,1.486-2.24,4.699-3.484,5.964      C391.814,208.585,389.591,210.634,386.793,211.471z"/>
				<g>
					<path style="fill-rule:evenodd;clip-rule:evenodd;fill:#996D1D;" d="M413.466,375.841c-0.227-0.265-0.832-1.278-0.597-2.073       c0.527-1.808,3.672-2.417,5.445-3.251c6.536-3.067,11.484-8.048,15.264-12.07c4.526-4.813,6.888-8.356,10.163-13.627       c0.808-1.302,1.901-3.874,3.664-4.347c0.566-0.152,1.555-0.062,2.18,0.885c0.854,1.294-0.34,4.182-1.125,5.904       c-0.958,2.106-2.138,4.109-2.963,5.338c-4.776,7.141-9.752,13.08-18.518,19.105       C423.705,373.957,415.938,378.797,413.466,375.841z"/>
					<path style="fill-rule:evenodd;clip-rule:evenodd;fill:#FFFFFF;" d="M440.751,369.656c-2.029-1.337-0.138-2.894,1.705-4.493       c1.957-1.703,3.709-3.765,5.649-3.186c2.27,1.722-0.719,4.848-3.464,6.635C443.224,369.532,441.715,370.208,440.751,369.656z"/>
					<path style="fill-rule:evenodd;clip-rule:evenodd;fill:#FFFFFF;" d="M454.395,336.916c-1.612-1.768-0.317-3.912,0.788-5.888       c0.809-1.448,2.306-4.217,4.221-3.622c0.659,0.203,1.202,1.107,1.464,1.784c0.708,1.83-1.23,7.133-3.962,8.27       C455.971,337.847,455.151,337.749,454.395,336.916z"/>
					<path style="fill-rule:evenodd;clip-rule:evenodd;fill:#996D1D;" d="M453.693,325.671c-3.157-0.577,0.331-7.449,2.224-5.119       C457.087,321.989,455.385,324.951,453.693,325.671z"/>
					<path style="fill-rule:evenodd;clip-rule:evenodd;fill:#996D1D;" d="M462.048,317.62c0.814,1.353,0.277,4.209-1.016,4.818       C458.031,323.844,459.421,316.741,462.048,317.62z"/>
					<path style="fill-rule:evenodd;clip-rule:evenodd;fill:#FFFFFF;" d="M456.093,314.475c-0.715-1.01,0.024-3.108,0.415-4.667       c0.704-2.764,0.999-5.268,1.191-8.665c0.097-1.784,0.116-3.478,1.853-3.892c2.269-0.544,2.565,3.367,2.565,5.121       c0.003,2.953-0.47,6.039-1.386,8.941c-0.444,1.418-0.893,3.405-2.32,3.979C457.502,315.653,456.642,315.249,456.093,314.475z"/>
					<path style="fill-rule:evenodd;clip-rule:evenodd;fill:#996D1D;" d="M454.178,282.682c-1.076-1.356-1.091-3.622-1.421-5.222       c-1.559-7.541-5.484-17.316-10.742-26.23c-0.869-1.462-2.095-3.527-3.108-5.181c-0.93-1.51-1.978-3.294,0.088-4.315       c1.917-0.953,4.074,2.477,5.591,4.704c5.063,7.439,7.881,14,11.124,22.782c0.878,2.369,1.643,4.566,2.146,7.225       c0.393,2.06,1.283,5.414,0.035,6.478C456.474,284.138,455.001,283.73,454.178,282.682z"/>
					<path style="fill-rule:evenodd;clip-rule:evenodd;fill:#996D1D;" d="M460.041,292.714c-1.086-1.107-1.176-5.178,0.376-6.012       c3.248-1.743,3.844,5.276,1.727,6.429C461.504,293.477,460.692,293.38,460.041,292.714z"/>
					<path style="fill-rule:evenodd;clip-rule:evenodd;fill:#996D1D;" d="M425.572,226.505c-0.931-1.364-1.198-2.255-0.21-2.964       c2.151-1.546,6.64,3.47,4.378,5.008C428.174,229.621,426.435,227.75,425.572,226.505z"/>
					<path style="fill-rule:evenodd;clip-rule:evenodd;fill:#FFFFFF;" d="M466.803,290.648c-1.443-1.648-2.738-9.193-0.617-10.441       c3.002-1.767,4.368,3.722,4.419,6.364c0.035,1.67-0.016,4.017-1.561,4.756C468.087,291.785,467.537,291.493,466.803,290.648z"/>
					<path style="fill-rule:evenodd;clip-rule:evenodd;fill:#FFFFFF;" d="M434.214,226.678c-0.655-0.888-1.72-2.466-0.497-3.494       c2.398-2.019,8.129,2.593,9.501,4.675c1.165,1.77,1.424,3.668-0.152,4.523c-1.439,0.785-3.786-0.828-4.835-1.695       C437.12,229.764,435.512,228.435,434.214,226.678z"/>
					<path style="fill-rule:evenodd;clip-rule:evenodd;fill:#FFFFFF;" d="M462.64,268.427c2.746,0.858,3.566,6.167,1.543,7.379       c-2.948,1.77-3.815-5.322-2.937-6.467C461.545,268.955,462.131,268.698,462.64,268.427z"/>
				</g>
			</g>
		</g>
		<path style="fill-rule:evenodd;clip-rule:evenodd;fill:#996D1D;" d="M483.127,282.888c-6.497,3.598-17.947,5.557-16.435,12.081    c1.284,5.544,10.766,3.3,15.033,3.343c-6.732,2.509-17.276,5.674-16.137,11.366c0.778,3.884,8.606,1.492,13.843,1.161    c-8.65,3.191-15.282,3.083-13.954,10.167c1.316,7,26.191,1.472,29.096-0.035c8.497-4.42,2.332-11.413-9.996-11.35    c8.504-0.893,22.163-6.25,22.621-10.755c0.25-2.466-2.463-4.087-6.119-5.514c3.925-1.034,10.342-3.638,10.899-8.922    c0.505-4.794-7.723-4.402-11.265-4.293c1.249-2.271,5.693-4.737,6.147-9.648c0.255-2.747-2.802-5.444-7.198-5.961    c-7.276-0.858-35.146,7.544-33.035,16.504C468.13,287.422,478.168,282.706,483.127,282.888z"/>
	</g>
	<g>
		<g>
			<g>
				<path style="fill-rule:evenodd;clip-rule:evenodd;fill:#D3A94A;" d="M264.458,193.174c-1.382-3.229-2.692-6.591-3.677-10.362      c-0.989-3.768-1.348-7.885-2.34-11.702c-0.548-2.095-1.711-3.53-2.007-6.015c-0.422-3.568-0.229-7.038,0-10.695      c-12.258-10.11-39.467-9.404-39.779,10.695c-0.244,15.803,14.221,30.854,29.079,32.094      C252.561,197.755,258.106,196.017,264.458,193.174z"/>
				<path style="fill-rule:evenodd;clip-rule:evenodd;fill:#F2B1C1;" d="M263.235,184.637c0.485-1.816-1.525-1.142-1.142-2.856      c-0.127-7.783-1.694-14.12-3.714-20.01c-6.542-2.618-20.241-8.546-28.869-3.146c-2.922,1.83-4.939,5.547-4.286,10.863      c1.485,12.097,17.441,18.505,30.867,17.432C258.615,186.721,261.3,186.231,263.235,184.637z"/>
			</g>
			<path style="fill-rule:evenodd;clip-rule:evenodd;fill:#996D1D;" d="M246.91,173.165c-1.552,0.701-4.899-0.393-5.506,1.25     c-0.253,3.44,5.192,2.886,8.262,3.254c3.526,0.428,7.315,1.356,10.259,0.752c0.551-2.512-1.884-4.063-3.754-5.758     c-3.221-2.915-6.494-5.926-10.763-8.256c-2.183-1.194-5.113-2.637-6.755-2.756c-2.149-0.157-3.492,0.493-3.753,1.752     c-0.59,2.81,3.262,4.867,5.004,6.009C242.425,171.062,244.394,172.212,246.91,173.165z"/>
		</g>
		<g>
			<g>
				<path style="fill-rule:evenodd;clip-rule:evenodd;fill:#D3A94A;" d="M366.84,188.112c1.381-3.229,2.691-6.594,3.676-10.365      c0.991-3.765,1.349-7.883,2.341-11.697c0.547-2.101,1.71-3.535,2.007-6.015c0.419-3.57,0.229-7.041,0-10.7      c12.26-10.108,39.465-9.401,39.777,10.7c0.246,15.8-14.221,30.848-29.081,32.088      C378.734,192.693,373.192,190.957,366.84,188.112z"/>
				<path style="fill-rule:evenodd;clip-rule:evenodd;fill:#F2B1C1;" d="M368.062,179.577c-0.483-1.819,1.521-1.147,1.142-2.861      c0.129-7.777,1.699-14.119,3.715-20.007c6.54-2.615,20.24-8.548,28.868-3.145c2.922,1.827,4.937,5.546,4.288,10.86      c-1.482,12.1-17.442,18.507-30.87,17.436C372.683,181.659,369.998,181.169,368.062,179.577z"/>
			</g>
			<path style="fill-rule:evenodd;clip-rule:evenodd;fill:#996D1D;" d="M384.385,168.1c1.553,0.704,4.901-0.393,5.508,1.253     c0.254,3.44-5.192,2.885-8.26,3.256c-3.527,0.425-7.317,1.353-10.259,0.75c-0.554-2.509,1.883-4.063,3.753-5.758     c3.221-2.915,6.498-5.928,10.761-8.259c2.186-1.194,5.119-2.631,6.758-2.753c2.148-0.154,3.491,0.493,3.755,1.754     c0.586,2.81-3.264,4.864-5.006,6.007C388.87,166,386.904,167.147,384.385,168.1z"/>
		</g>
	</g>
	<path style="fill-rule:evenodd;clip-rule:evenodd;fill:#996D1D;" d="M90.232,261.933c-2.565,1.08-3.181,3.822-4.345,6.02   c-1.133,2.13-2.835,4.077-3.677,6.348c-1.798,4.862-2.298,11.274-2.34,18.055c-0.078,12.741,3.659,23.802,6.685,35.098   c1.414,5.27,2.645,11.329,3.677,17.381c1.019,5.961,2.037,12.476,1.671,19.051c-0.784,14.149-7.499,24.723-15.044,31.755   c-8.083,7.544-20.065,11.816-21.059,25.407c-0.367,5.054,0.573,10.419,1.004,15.711c1.246,15.356,1.806,32.421,11.697,38.441   c4.158,2.528,10.259,3.378,15.712,4.68c5.391,1.286,11.182,3.5,16.715,2.006c1.03-1.375,0.215-2.864-0.668-4.012   c7.506,1.153,5.737-6.348,1.671-8.354c3.47-0.184,7.08,0.769,7.689-1.676c0.923-3.733-9.512-5.999-12.372-7.022   c-4.972-1.776-12.927-3.609-13.701-8.021c-0.596-3.386,0.666-8.01,1.334-13.372c0.985-7.891,1.9-13.207,5.349-17.714   c4.259-5.563,12.235-9.582,18.388-14.038c17.665-12.804,32.766-32.941,34.425-62.176c0.586-10.316-0.805-19.918-2.672-28.079   c-3.978-17.381-8.988-29.673-19.39-42.12c-4.763-5.701-11.303-11.997-19.721-13.034c-4.565-0.566-8.783,0.301-11.699,2.672   C88.024,265.574,90.555,263.254,90.232,261.933z"/>
	<g>
		<path style="fill-rule:evenodd;clip-rule:evenodd;fill:#D3A94A;" d="M107.227,85.701c-3.997-3.562-8.04-6.743-9.173-13.846    c-1.248-7.815,2.865-14.739,7.912-20.132c5.14-5.492,12.036-10.541,20.514-13.28c20.971-6.781,37.267-1.202,46.582,7.374    c5.572,5.13,9.664,12.5,11.389,20.456c1.829,8.456,0.916,15.735-1.102,23.307c-7.49,28.122-31.048,48.46-52.077,68.718    c-10.182,9.802-21.433,20.762-31.787,31.43c-10.575,10.893-19.933,22.11-25.905,34.327c-6.124,12.52-10.012,27.938-3.849,45.736    c4.161,12.019,11.149,21.442,19.127,28.52c2.522,2.236,5.274,5.492,9.3,5.113c0.549-2.602-2.561-2.068-1.769-3.657    c0.076-0.149,0.95-1.05,1.172-1.058c0.669-0.022,1.94,2.547,3.875,0.576c-0.346-4.464-3.458-7.582-5.576-10.904    c-2.163-3.392-4.105-6.984-5.633-11.142c-3.214-8.741-2.898-16.888-0.999-24.831c5.232-21.932,20.515-39.001,36.517-55.124    c15.741-15.857,34.405-32.175,48.132-48.801c9.094-11.012,17.235-23.477,23.776-37.12c6.513-13.586,11.181-27.716,10.303-44.015    c-1.027-19.076-9.648-35.225-21.217-43.868c-11.698-8.733-26.708-12.836-47.813-8.857c-22.897,4.315-37.461,13.835-48.02,24.972    c-5.605,5.907-9.687,12.295-11.962,18.832c-2.318,6.662-3.976,14.85-2.393,23.883c2.575,14.672,10.841,24.094,20.691,27.876    c5.406,2.074,11.94,3.062,18.731,1.492c13.435-3.105,26.092-15.07,21.427-28.092c-3.319-9.261-16.407-15.024-26.44-5.977    C108.992,79.383,106.954,82.369,107.227,85.701z"/>
		<path style="opacity:0.1;fill-rule:evenodd;clip-rule:evenodd;fill:#3A3670;" d="M107.227,85.701    c-3.997-3.562-8.04-6.743-9.173-13.846c-1.248-7.815,2.865-14.739,7.912-20.132c5.14-5.492,12.036-10.541,20.514-13.28    c20.971-6.781,37.267-1.202,46.582,7.374c5.572,5.13,9.664,12.5,11.389,20.456c1.829,8.456,0.916,15.735-1.102,23.307    c-7.49,28.122-31.048,48.46-52.077,68.718c-10.182,9.802-21.433,20.762-31.787,31.43c-10.575,10.893-19.933,22.11-25.905,34.327    c-6.124,12.52-10.012,27.938-3.849,45.736c4.161,12.019,11.149,21.442,19.127,28.52c2.522,2.236,5.274,5.492,9.3,5.113    c0.549-2.602-2.561-2.068-1.769-3.657c0.076-0.149,0.95-1.05,1.172-1.058c0.669-0.022,1.94,2.547,3.875,0.576    c-0.346-4.464-3.458-7.582-5.576-10.904c-2.163-3.392-4.105-6.984-5.633-11.142c-3.214-8.741-2.898-16.888-0.999-24.831    c5.232-21.932,20.515-39.001,36.517-55.124c15.741-15.857,34.405-32.175,48.132-48.801c9.094-11.012,17.235-23.477,23.776-37.12    c6.513-13.586,11.181-27.716,10.303-44.015c-1.027-19.076-9.648-35.225-21.217-43.868c-11.698-8.733-26.708-12.836-47.813-8.857    c-22.897,4.315-37.461,13.835-48.02,24.972c-5.605,5.907-9.687,12.295-11.962,18.832c-2.318,6.662-3.976,14.85-2.393,23.883    c2.575,14.672,10.841,24.094,20.691,27.876c5.406,2.074,11.94,3.062,18.731,1.492c13.435-3.105,26.092-15.07,21.427-28.092    c-3.319-9.261-16.407-15.024-26.44-5.977C108.992,79.383,106.954,82.369,107.227,85.701z"/>
		<g>
			<path style="fill-rule:evenodd;clip-rule:evenodd;fill:#FFFFFF;" d="M196.863,55.01c-0.662,3.251,0.247,6.41,1.487,10.63     c0.77,2.621,1.621,6.039,3.719,5.733c3.834-0.558,1.978-14.647-1.638-16.994C199.496,53.767,198.204,53.794,196.863,55.01z"/>
			<path style="fill-rule:evenodd;clip-rule:evenodd;fill:#996D1D;" d="M191.62,70.894c-1.172,1.418-0.906,6.35,1.828,6.201     C195.213,75.948,196.14,69.235,191.62,70.894z"/>
			<path style="fill-rule:evenodd;clip-rule:evenodd;fill:#FFFFFF;" d="M121.145,100.161c2.19-0.068,3.455-1.963,4.477-3.927     c0.923-1.773,1.958-4.028,1.837-5.316c-0.221-2.258-1.264-3.587-3.121-3.322C120.567,88.135,116.75,97.999,121.145,100.161z"/>
			<path style="fill-rule:evenodd;clip-rule:evenodd;fill:#5F5A99;" d="M113.975,95.546c-5.19-3.208-6.87,7.763-2.286,6.965     c0.782-0.141,1.387-0.615,1.712-1.196c0.33-0.596,1.731-3.798,1.98-4.545C115.78,95.552,115.013,97.582,113.975,95.546z"/>
			<path style="fill-rule:evenodd;clip-rule:evenodd;fill:#FFFFFF;" d="M200.53,80.2c-3.459-0.268-3.486,4.862-3.786,7.847     c-0.324,3.192-0.352,5.931,1.975,5.655c1.964-0.238,2.321-3.303,2.917-5.587C202.299,85.56,204.146,80.479,200.53,80.2z"/>
			<path style="fill-rule:evenodd;clip-rule:evenodd;fill:#996D1D;" d="M126.398,175.628c3.14-0.227,4.719-2.52,6.907-4.529     c1.561-1.432,4.883-4.017,4.534-5.99c-0.229-1.305-1.094-2.409-3.238-1.5c-1.849,0.79-4.362,2.999-6.463,5.187     C126.099,170.934,124.031,173.758,126.398,175.628z"/>
			<path style="fill-rule:evenodd;clip-rule:evenodd;fill:#FFFFFF;" d="M115.971,181.031c-2.772-0.03-9.223,6.21-7.119,9.445     c1.804,2.772,5.462-0.834,7.267-3.083c1.012-1.259,3.289-3.192,2.106-5.387C117.692,181.018,116.857,181.039,115.971,181.031z"/>
			<path style="fill-rule:evenodd;clip-rule:evenodd;fill:#5F5A99;" d="M80.93,226.107c-4.275-1.221-6.235,5.062-7.183,9.206     c-0.475,2.073-1.434,10.622,2.512,10.124c2.761-0.349,2.684-4.353,3.216-6.686C80.329,235.04,83.027,230.463,80.93,226.107z"/>
		</g>
	</g>
	<g>
		<path style="fill-rule:evenodd;clip-rule:evenodd;fill:#D3A94A;" d="M341.94,219.15c-1.562-1.627-4.517-2.131-7.02-3.01    c-11.456-4.012-23.958-8.725-36.102-13.034c-5.107-1.816-11.353-4.762-15.71-5.013c-6.505-0.384-13.797,1.903-21.058,2.675    c-7.295,0.771-14.777,0.877-22.397,0.666c-15.62-0.436-31.651-0.439-45.796,0.669c-29.366,2.296-55.028,9.396-73.538,20.725    c-18.429,11.28-34.427,29.895-38.444,55.822c-2.216,14.32,1.83,27.741,7.355,38.444c5.538,10.725,13.102,17.95,23.064,24.065    c9.82,6.028,21.244,10.414,35.432,11.702c47.176,4.28,70.344-26.027,99.95-40.78c16.333-8.141,35.22-12.389,51.706-19.43    l13.695-10.651l19.831-16.89c1.125-1.979,2.135-4.041,3.014-6.182C340.327,248.204,343.74,234.877,341.94,219.15z"/>
		<path style="opacity:0.1;fill-rule:evenodd;clip-rule:evenodd;fill:#3A3670;" d="M341.94,219.15    c-1.562-1.627-4.517-2.131-7.02-3.01c-11.456-4.012-23.958-8.725-36.102-13.034c-5.107-1.816-11.353-4.762-15.71-5.013    c-6.505-0.384-13.797,1.903-21.058,2.675c-7.295,0.771-14.777,0.877-22.397,0.666c-15.62-0.436-31.651-0.439-45.796,0.669    c-29.366,2.296-55.028,9.396-73.538,20.725c-18.429,11.28-34.427,29.895-38.444,55.822c-2.216,14.32,1.83,27.741,7.355,38.444    c5.538,10.725,13.102,17.95,23.064,24.065c9.82,6.028,21.244,10.414,35.432,11.702c47.176,4.28,70.344-26.027,99.95-40.78    c16.333-8.141,35.22-12.389,51.706-19.43l13.695-10.651l19.831-16.89c1.125-1.979,2.135-4.041,3.014-6.182    C340.327,248.204,343.74,234.877,341.94,219.15z"/>
		<path style="fill:#996D1D;" d="M81.874,278.649c1.597-10.311,5.113-19.449,9.898-27.443c-2.342,5.552-4.089,11.559-5.088,18.023    c-2.217,14.32,1.826,27.738,7.355,38.441c5.538,10.725,13.1,17.952,23.064,24.067c9.819,6.028,21.245,10.411,35.433,11.697    c47.175,4.285,70.342-26.027,99.948-40.777c21.642-10.784,47.769-14.739,66.852-27.41c6.613-4.394,12.505-10.246,16.955-17.243    c-0.122,0.309-0.244,0.623-0.368,0.923c-4.451,10.839-12.251,19.671-21.393,25.74c-19.085,12.674-45.211,16.626-66.855,27.413    c-29.606,14.753-52.773,45.06-99.95,40.78c-14.188-1.288-25.613-5.674-35.432-11.702c-9.963-6.115-17.526-13.34-23.064-24.065    C83.704,306.389,79.658,292.968,81.874,278.649z"/>
		<path style="fill:#996D1D;" d="M262.049,200.767c0.001-0.108,0.207-0.03,0.309-0.044c5.07,12.818,12.482,23.458,22.086,29.124    c11.314,6.673,28.946,10.292,44.794,8.02c4.203-0.603,8.549-1.543,12.817-2.799C277.209,260.198,261.866,209.248,262.049,200.767z    "/>
		<g>
			<g>
				<path style="fill-rule:evenodd;clip-rule:evenodd;fill:#FFFFFF;" d="M143.717,224.832c2.757,1.378,5.578,0.536,8.692-0.336      c2.421-0.677,6.828-2.298,6.349-5.682C157.801,212.058,140.238,219.386,143.717,224.832z"/>
				<path style="fill-rule:evenodd;clip-rule:evenodd;fill:#FFFFFF;" d="M129.006,226.169c-3.698-0.899-7.756,3.013-11.364,6.018      c-2.813,2.344-7.82,6.202-6.685,10.026c1.244,4.193,5.943,0.696,8.022-1.004c3.434-2.802,5.658-4.274,9.359-7.35      c1.224-1.017,3.403-2.26,3.343-4.68C131.62,226.754,130.367,226.497,129.006,226.169z"/>
				<path style="fill-rule:evenodd;clip-rule:evenodd;fill:#5F5A99;" d="M131.682,240.873c3.348,4.935,13.56-2.496,11.364-4.675      C138.445,231.627,129.443,237.579,131.682,240.873z"/>
			</g>
			<g>
				<path style="fill-rule:evenodd;clip-rule:evenodd;fill:#FFFFFF;" d="M318.541,265.948c4.501,1.613,6.984-3.931,8.689-6.686      c1.849-2.98,5.599-6.838,4.013-11.031c-2.462-6.505-8.407,1.73-11.032,6.351C318.049,258.393,314.336,264.44,318.541,265.948z"/>
				<path style="fill-rule:evenodd;clip-rule:evenodd;fill:#5F5A99;" d="M299.487,281.659c3.116,1.08,5.648-0.615,7.686-2.341      c2.033-1.719,2.968-7.647,1.337-9.361C305.965,267.282,292.996,276.8,299.487,281.659z"/>
			</g>
			<g>
				<path style="fill-rule:evenodd;clip-rule:evenodd;fill:#5F5A99;" d="M187.84,312.748c-3.879-2.85-13.439,6.212-8.358,9.358      C182.791,324.155,192.827,316.405,187.84,312.748z"/>
				<path style="fill-rule:evenodd;clip-rule:evenodd;fill:#5F5A99;" d="M208.565,321.77c0-4.848-6.173-5.203-10.752-1.616      c-2.957,2.314-10.562,9-8.636,12.314c2.202,3.792,9.388-0.907,11.366-2.342C204.13,327.525,208.565,324.066,208.565,321.77z"/>
			</g>
		</g>
	</g>
	<g>
		<g>
			<path style="fill-rule:evenodd;clip-rule:evenodd;fill:#D3A94A;" d="M189.433,474.42c5.576-0.146,5.291-7.195,0.34-7.839     c0.124-1.364,2.937-1.819,1.704-3.411c-2.986-4.139-9.668-3.974-15.337-4.77c-5.977-0.837-12.134-1.976-17.721-2.385     c1.182-10.322,4.002-19.56,6.819-28.967c2.765-9.247,5.785-18.313,7.494-28.97c3.426-21.32,3.47-45.79-0.679-67.137     c-3.974-20.451-11-35.715-21.813-50.782c-4.966-6.919-10.155-12.514-18.062-18.402c-7.062-5.26-16.016-10.332-24.88-11.247     c-22.205-2.293-27.345,15.73-26.242,37.829c0.738,14.785,7.074,27.427,13.975,38.168c6.796,10.587,14.222,19.72,22.151,29.652     c8.498,10.652,15.831,19.647,18.063,33.739c1.311,8.291,0.631,16.404-0.682,23.856c-1.225,6.957-3.577,13.583-4.09,21.812     c-0.445,7.198,0.965,14.036,2.387,21.133c0.973,4.862,2.528,14.539,5.794,17.376c2.11,1.835,7.78,2.393,11.927,3.07     c9.358,1.527,15.267,2.534,26.582,3.067C183.471,480.513,194.9,481.111,189.433,474.42z"/>
			<g>
				<path style="fill-rule:evenodd;clip-rule:evenodd;fill:#FFFFFF;" d="M117.01,338.042c-1.637,4.594,1.926,7.942,4.158,10.378      c2.417,2.639,5.253,5.996,9.718,6.984c6.552-2.707,0.627-8.725-3.186-12.579C124.56,339.647,120.56,335.191,117.01,338.042z"/>
				<path style="fill-rule:evenodd;clip-rule:evenodd;fill:#5F5A99;" d="M106.858,315.003c-1.918,2.758-0.77,5.814,0.358,8.294      c1.126,2.469,6.069,9.374,8.628,3.795C117.65,323.164,112.077,312.309,106.858,315.003z"/>
			</g>
		</g>
		<g>
			<path style="fill-rule:evenodd;clip-rule:evenodd;fill:#D3A94A;" d="M305.169,463.836c2.407,2.022,4.02,7.986,8.357,7.355     c2.684-0.39,3.426-3.793,2.676-7.688c5.379,1.448,7.638-1.673,6.685-9.025c-0.932-7.182-4.487-14.623-7.022-20.392     c-8.175-18.621-19.003-36.416-27.073-54.821c-2.88-6.565-5.407-13.73-6.353-21.06c-1.158-8.987-0.935-17.211,0-26.071     c2.86-27.05,8.814-65.01-3.676-86.243c-3.557-6.05-10.336-13.34-18.72-14.377c-5.54-0.685-11.097,0.774-14.041,3.01     c-13.968,10.614-15.756,40.563-16.711,64.514c-0.518,12.958,0.196,26.56,1.672,38.774c1.5,12.436,3.018,23.545,8.022,32.426     c4.868,8.643,11.387,16.031,17.047,23.399c8.868,11.54,17.286,22.565,25.07,35.769c2.335,3.955,5.371,8.275,7.355,12.701     c2.074,4.616,3.215,10.349,4.68,15.711c-0.014-0.054,1.494,5.281,2.674,7.352C298.8,470.427,304.323,471.131,305.169,463.836z"/>
			<g>
				<path style="fill-rule:evenodd;clip-rule:evenodd;fill:#FFFFFF;" d="M245.077,328.952c2.39-1.949,2.779-4.864,3.263-8.061      c0.376-2.485,0.709-7.171-2.574-8.124C239.212,310.867,238.683,329.886,245.077,328.952z"/>
				<path style="fill-rule:evenodd;clip-rule:evenodd;fill:#FFFFFF;" d="M240.258,342.914c-2.333,3.007-0.436,8.31,0.822,12.836      c0.984,3.527,2.445,9.674,6.399,10.211c4.338,0.585,3.075-5.138,2.381-7.728c-1.148-4.28-1.578-6.914-2.865-11.553      c-0.425-1.532-0.66-4.031-2.895-4.97C241.865,340.77,241.115,341.81,240.258,342.914z"/>
				<path style="fill-rule:evenodd;clip-rule:evenodd;fill:#5F5A99;" d="M254.767,346.514c3.871-1.965,4.64-10.384,0.4-12.287      C249.247,331.578,248.869,349.508,254.767,346.514z"/>
			</g>
		</g>
	</g>
	<g>
		<path style="fill-rule:evenodd;clip-rule:evenodd;fill:#D3A94A;" d="M319.209,106.501c-25.017-1.614-51.05,4.832-59.833,21.057    c-3.637,6.71-4.975,18.857-5.016,28.748c-0.123,29.414,10.391,61.924,30.084,73.542c11.314,6.673,28.946,10.292,44.794,8.02    c16.776-2.406,35.875-10.059,43.119-22.397c5.446-9.271,6.249-23.732,6.019-38.774c-0.259-16.843-3.267-33.885-8.691-44.794    c-3.103-6.231-12.893-14.977-18.721-18.05C343.602,109.971,330.251,107.213,319.209,106.501z"/>
		<path style="opacity:0.1;fill-rule:evenodd;clip-rule:evenodd;fill:#3A3670;" d="M319.209,106.501    c-25.017-1.614-51.05,4.832-59.833,21.057c-3.637,6.71-4.975,18.857-5.016,28.748c-0.123,29.414,10.391,61.924,30.084,73.542    c11.314,6.673,28.946,10.292,44.794,8.02c16.776-2.406,35.875-10.059,43.119-22.397c5.446-9.271,6.249-23.732,6.019-38.774    c-0.259-16.843-3.267-33.885-8.691-44.794c-3.103-6.231-12.893-14.977-18.721-18.05    C343.602,109.971,330.251,107.213,319.209,106.501z"/>
		<path style="fill-rule:evenodd;clip-rule:evenodd;fill:#996D1D;" d="M300.489,89.453c-1.567,4.307,0.757,8.762,2.675,12.704    c1.514,3.11,3.772,9.063,8.358,8.353c2.557-0.395,3.992-4.347,5.013-8.353c0.788-3.089,2.183-9.834-0.67-10.701    c-3.929-1.188-4.186,4.196-5.348,7.355C308.152,96.548,305.989,86.248,300.489,89.453z"/>
		<g>
			<g>
				<path style="fill-rule:evenodd;clip-rule:evenodd;fill:#FFFFFF;" d="M370.018,162.323c-5.818-0.966-4.156,17.208-0.333,17.381      c2.964,0.135,4.162-8.889,3.342-13.705C372.703,164.097,372.013,162.654,370.018,162.323z"/>
				<path style="fill-rule:evenodd;clip-rule:evenodd;fill:#996D1D;" d="M358.651,180.706c-2.937,0.904-2.769,6.757-0.669,8.356      C362.337,189.36,361.494,181.44,358.651,180.706z"/>
				<path style="fill-rule:evenodd;clip-rule:evenodd;fill:#5F5A99;" d="M366.675,191.404c-2.465,1.711-3.005,10.151,0,11.031      C371.546,203.864,372.677,191.074,366.675,191.404z"/>
			</g>
			<g>
				<path style="fill-rule:evenodd;clip-rule:evenodd;fill:#5F5A99;" d="M270.74,197.757c-1.467,3.021,0.042,6.459,1.337,9.022      c1.194,2.369,2.767,5.812,6.016,5.685c0.146-0.411,0.428-0.688,1.003-0.669c0.912-1.944-0.217-5.292-1.337-8.021      C276.326,200.283,274.763,195.865,270.74,197.757z"/>
				<path style="fill-rule:evenodd;clip-rule:evenodd;fill:#FFFFFF;" d="M283.108,218.146c-0.087,4.12,3.537,7.644,7.02,6.018      C289.887,220.309,286.968,215.204,283.108,218.146z"/>
			</g>
			<g>
				<path style="fill-rule:evenodd;clip-rule:evenodd;fill:#F2B1C1;" d="M318.873,123.88c-9.765-0.72-21.114,0.368-29.751,2.674      c-10.307,2.756-20.914,7.736-21.391,20.727c-0.453,12.26,4.338,27.667,9.692,34.096c3.447,4.134,11.073,7.285,13.708,11.028      c4.872,6.938,5.544,21.661,14.372,27.413c10.418,6.781,28.868,2.924,33.761-7.69c2.385-5.168,1.173-13.575,1.673-20.389      c0.274-3.763,1.274-7.393,2.34-9.696c2.899-6.269,9.501-9.913,12.032-16.713c3.531-9.482,0.606-20.586-3.342-26.073      c-2.356-3.273-7.267-7.363-11.365-9.693C334.978,126.367,327.587,124.527,318.873,123.88z"/>
				<g>
					<path style="fill-rule:evenodd;clip-rule:evenodd;fill:#5F5A99;" d="M317.54,181.711c-2.394-0.233-6.861-7.395-9.695-2.675       c0.532,4.255,4.904,12.233,10.697,11.031c1.971-0.411,8.114-9.214,6.349-13.705C322.921,171.356,317.17,177.696,317.54,181.711       z"/>
					<path style="fill-rule:evenodd;clip-rule:evenodd;fill:#D88099;" d="M330.574,193.077c-4.444,6.691-15.102,8.31-21.727,3.34       c-2.731-2.044-5.994-9.369-9.695-9.022c-7.269,0.674,2.134,10.644,3.343,11.697c5.46,4.764,15.374,8.808,23.734,4.683       c3.671-1.814,8.006-5.852,9.358-9.361c0.74-1.922,1.019-3.736,0-6.353C332.454,186.007,330.589,189.904,330.574,193.077z"/>
					<g>
						<path style="fill-rule:evenodd;clip-rule:evenodd;fill:#5F5A99;" d="M299.436,136.499c-4.286-0.471-8.714,2.236-12.172,4.975        c-5.054,4.007-10.334,10.679-11.873,17.116c-2.011,8.424,2.005,14.802,10.251,15.213c6.441,0.322,12.97-1.935,17.335-4.499        c3.98-2.339,6.026-4.883,6.296-11.031c0.378-8.605-1.413-17.295-6.042-20.538        C302.404,137.157,300.746,136.643,299.436,136.499z"/>
						<path style="fill-rule:evenodd;clip-rule:evenodd;fill:#D88099;" d="M293.968,167.586c-4.176,0.038-10.135,1.337-10.28,4.967        c-0.153,4.098,4.549,5.227,8.03,5.157c3.87-0.078,9.676-1.226,9.998-4.404c0.156-1.543-0.819-3.292-1.36-3.874        C299.085,168.054,296.656,167.561,293.968,167.586z"/>
						<path style="fill-rule:evenodd;clip-rule:evenodd;fill:#FFFFFF;" d="M294.002,158.737c0.459,3.346,2.34,5.85,4.213,5.593        c1.877-0.252,3.02-3.164,2.561-6.516c-0.447-3.343-2.344-5.844-4.203-5.592C294.699,152.476,293.548,155.391,294.002,158.737z        "/>
						<path style="fill:#FFFFFF;" d="M289.703,148.67c0.091-0.016,0.183-0.046,0.283-0.076l10.122-3.765        c1.123-0.414,1.693-1.676,1.279-2.804c-0.415-1.132-1.594-1.421-2.809-1.28c-4.718,0.525-8.068,2.13-10.116,3.752        c-0.944,0.753-1.714,1.678-1.287,2.81C287.566,148.342,288.657,148.913,289.703,148.67z"/>
					</g>
					<g>
						<path style="fill-rule:evenodd;clip-rule:evenodd;fill:#5F5A99;" d="M323.931,134.696c4.171-1.096,8.948,0.931,12.77,3.132        c5.59,3.221,11.79,9.044,14.258,15.191c3.227,8.034,0.193,14.932-7.906,16.55c-6.323,1.267-13.114-0.008-17.807-1.906        c-4.281-1.724-6.678-3.944-7.848-9.983c-1.636-8.459-1.146-17.319,2.96-21.203        C321.09,135.779,322.655,135.032,323.931,134.696z"/>
						<path style="fill-rule:evenodd;clip-rule:evenodd;fill:#D88099;" d="M333.903,164.643c4.136-0.577,10.223-0.168,10.898,3.403        c0.754,4.031-3.732,5.839-7.187,6.28c-3.839,0.49-9.75,0.206-10.534-2.891c-0.382-1.502,0.326-3.37,0.775-4.031        C328.912,165.853,331.244,165.012,333.903,164.643z"/>
						<path style="fill-rule:evenodd;clip-rule:evenodd;fill:#FFFFFF;" d="M332.573,155.895c0.037,3.378-1.459,6.128-3.351,6.153        c-1.888,0.024-3.446-2.693-3.487-6.072c-0.046-3.37,1.462-6.126,3.337-6.148C330.964,149.804,332.526,152.522,332.573,155.895        z"/>
						<path style="fill:#FFFFFF;" d="M335.347,145.308c-0.095-0.003-0.189-0.019-0.294-0.038l-10.565-2.239        c-1.172-0.241-1.92-1.408-1.677-2.585c0.243-1.18,1.371-1.635,2.59-1.678c4.743-0.176,8.293,0.923,10.557,2.228        c1.042,0.604,1.937,1.408,1.684,2.588C337.41,144.669,336.415,145.392,335.347,145.308z"/>
					</g>
				</g>
			</g>
		</g>
	</g>
</g>















</svg>
